<svg xmlns="http://www.w3.org/2000/svg" viewBox="0 0 1166 692.78"><defs><style>.cls-1{fill:#e5e5e5;}.cls-2{fill:#f79c7f;}.cls-3{fill:#b2b2b2;}.cls-4{fill:#74c2e4;}.cls-5{fill:#7fcdee;}.cls-6{fill:#66c08c;}.cls-7{fill:#29a75f;}.cls-8{fill:#f3673a;}.cls-9{fill:#29abe2;}.cls-10{fill:#5cb682;}.cls-11{fill:none;}</style></defs><title>fairLogoWithCircuit</title><g id="Layer_2" data-name="Layer 2"><polyline class="cls-1" points="1165 132.86 1 132.86 1 154.36 1165 154.36 1165 132.86"/><path class="cls-1" d="M1438.52,397.92h0v0h0M274,397.41V375.92H1438v21.49H274m1165-22.49H273v23.5H1439v-23.5" transform="translate(-273.02 -243.05)"/><polyline class="cls-1" points="1165 529.32 1 529.32 1 550.82 1165 550.82 1165 529.32"/><path class="cls-1" d="M1438.52,794.37h0v0h0M274,793.87v-21.5H1438v21.5H274m1165-22.5H273v23.5H1439v-23.5" transform="translate(-273.02 -243.05)"/><polyline class="cls-1" points="813.98 398.64 722.66 398.64 722.66 483.44 813.98 483.44 813.98 398.64"/><path class="cls-2" d="M1057,572.21v0m30-129H995.68V641.7H1087V443.18" transform="translate(-273.02 -243.05)"/><path class="cls-3" d="M541.2,244.52H511.94l-17.3,29-17.27-29H447.94l33.39,49.92v36h26.55v-36l33.32-49.92m345.18,0H805.86v21.21h27v64.69h26.48V265.73h27V244.52m170.74,0h-71v85.9h72.27V311h-45.72V294h41.22V276.51h-41.22V262.86h44.43V244.52m199.51,0h-34.81l-13.34,52.26-13.43-52.26h-34.83v85.9h21.69V264.91l16.68,65.51h19.64l16.71-65.51v65.51h21.69v-85.9m-939.32-1.47q-13.4,0-21.08,3.37a25.49,25.49,0,0,0-11.52,9.26,22.6,22.6,0,0,0-3.83,12.51,21,21,0,0,0,7.49,16.58q7.42,6.51,24.85,10.43,10.63,2.34,13.56,5a7.9,7.9,0,0,1,2.93,6,8,8,0,0,1-3.07,6.18Q323.56,315,317.9,315q-7.61,0-11.7-5.22-2.52-3.23-3.33-9.37L277.67,302q1.11,13,9.53,21.44t30.29,8.44q12.45,0,20.64-3.6a28.55,28.55,0,0,0,12.74-10.58,27.29,27.29,0,0,0,4.56-15.23A24.2,24.2,0,0,0,352,289.75q-3.42-5.69-10.93-9.52t-24.88-7.59q-7-1.45-8.89-3.16a4.81,4.81,0,0,1-1.93-3.69,6,6,0,0,1,2.34-4.78q2.34-2,7-2,5.61,0,8.8,2.64c2.12,1.75,3.52,4.57,4.18,8.43l25-1.46Q351,255.3,342.37,249.18t-25.06-6.13m355.29,0q-13.4,0-21.08,3.37A25.38,25.38,0,0,0,640,255.68a22.6,22.6,0,0,0-3.83,12.51,21,21,0,0,0,7.49,16.58q7.43,6.51,24.85,10.43,10.63,2.34,13.56,5a7.89,7.89,0,0,1,2.92,6,8,8,0,0,1-3.07,6.18c-2,1.78-5,2.67-8.74,2.67q-7.59,0-11.69-5.22-2.52-3.23-3.33-9.37L633,302q1.11,13,9.53,21.44t30.28,8.44q12.47,0,20.64-3.6a28.53,28.53,0,0,0,12.75-10.58,27.29,27.29,0,0,0,4.56-15.23,24.2,24.2,0,0,0-3.42-12.72q-3.42-5.69-10.93-9.52t-24.88-7.59q-7-1.45-8.89-3.16a4.78,4.78,0,0,1-1.93-3.69A6,6,0,0,1,663,261q2.34-2,7-2,5.61,0,8.8,2.64c2.12,1.75,3.51,4.57,4.18,8.43l25-1.46q-1.63-13.37-10.26-19.48t-25-6.13m723.79,0q-13.4,0-21.08,3.37a25.49,25.49,0,0,0-11.52,9.26,22.6,22.6,0,0,0-3.83,12.51,21,21,0,0,0,7.49,16.58q7.42,6.51,24.85,10.43,10.64,2.34,13.56,5a7.9,7.9,0,0,1,2.93,6,8,8,0,0,1-3.07,6.18Q1402.65,315,1397,315q-7.61,0-11.7-5.22c-1.67-2.15-2.79-5.27-3.33-9.37l-25.2,1.58q1.11,13,9.53,21.44t30.29,8.44q12.45,0,20.64-3.6A28.55,28.55,0,0,0,1430,317.7a27.29,27.29,0,0,0,4.56-15.23,24.2,24.2,0,0,0-3.42-12.72q-3.42-5.69-10.93-9.52t-24.88-7.59q-7-1.45-8.89-3.16a4.81,4.81,0,0,1-1.93-3.69,6,6,0,0,1,2.34-4.78q2.34-2,7-2,5.61,0,8.8,2.64c2.12,1.75,3.52,4.57,4.18,8.43l25-1.46q-1.64-13.37-10.26-19.48t-25.06-6.13" transform="translate(-273.02 -243.05)"/><path class="cls-3" d="M388.51,847q-12.08,0-18.9,3A23.9,23.9,0,0,0,359,858.7q-3.75,5.65-5.16,15.73l23.91,1.93q1-7.26,3.89-10.13a11.07,11.07,0,0,1,14.77-.09,9,9,0,0,1,2.9,6.71,13.26,13.26,0,0,1-2.93,7.67q-2.94,4.05-13.42,11.84-17.17,12.72-23.41,22.06a44.83,44.83,0,0,0-7.47,20h71.6V914.92H386.46c2.18-2.15,4.09-3.89,5.71-5.22s4.83-3.65,9.64-7q12.12-8.55,16.73-15.7a27.37,27.37,0,0,0,4.6-15,23.26,23.26,0,0,0-4-13.33,23.74,23.74,0,0,0-11-8.82q-7-2.86-19.6-2.87m312.41,72.54q-5.5,0-8.41-6t-2.9-22.41q0-16.23,2.64-22.24c1.75-4,4.61-6,8.55-6s6.77,2,8.7,5.89,2.9,11.59,2.9,23q0,11.67-1.26,17.17T707.22,917a8.82,8.82,0,0,1-6.3,2.55m.7-72.54q-18,0-26.86,9.78t-8.82,34.28a88.08,88.08,0,0,0,1.73,18.19q1.73,8.24,4.83,13a28.31,28.31,0,0,0,11,10.14q6.67,3.45,17.52,3.46,19.34,0,27.24-10.84t7.91-34.22a82.45,82.45,0,0,0-2.4-20,37.45,37.45,0,0,0-3.25-8.82,29.67,29.67,0,0,0-5.54-7.21,26.29,26.29,0,0,0-9.08-5.56Q710.3,847,701.62,847m330.46,0h-19.75a38.48,38.48,0,0,1-10.54,13.59q-6.75,5.5-18.93,9.44v19.57a88,88,0,0,0,13.74-5.28,73.83,73.83,0,0,0,11.34-7.2v57.24h24.14V847m291.26,44a10.24,10.24,0,0,1-8.12-3.81q-3.26-3.81-3.25-11t3.13-10.72a10,10,0,0,1,7.88-3.58,11,11,0,0,1,8.56,4c2.34,2.63,3.52,6.28,3.52,10.92s-1.12,8.09-3.34,10.55a10.83,10.83,0,0,1-8.38,3.69m-1.06-44q-10.72,0-17.81,3.6a26.36,26.36,0,0,0-11.13,10.64,30.63,30.63,0,0,0-4,15.58q0,12.54,7.94,20.74a26.08,26.08,0,0,0,19.49,8.21,25,25,0,0,0,10.43-2,29.56,29.56,0,0,0,8.78-6.45q-1.17,13.83-3.51,18.11-3.23,5.79-9,5.8a7.76,7.76,0,0,1-5.45-2.05c-1.48-1.37-2.54-3.71-3.16-7l-23.73,3a31.71,31.71,0,0,0,6,11.43,25,25,0,0,0,9.85,6.94q5.91,2.38,16.17,2.38,17.34,0,27.13-10.81t9.78-34.08q0-15.81-4.65-25.46T1343,851.43q-7.8-4.42-20.69-4.42" transform="translate(-273.02 -243.05)"/><path class="cls-1" d="M1268.3,512.76h0v59.55h0V512.76m0-69.58H1177V726.07h91.32V641.8H1177V443.29h91.32v-.11" transform="translate(-273.02 -243.05)"/><polyline class="cls-4" points="995.28 200.24 903.96 200.24 903.96 398.75 995.28 398.75 995.28 329.26 995.27 329.26 995.27 269.71 995.28 269.71 995.28 200.24"/><path class="cls-5" d="M1389.5,616.76a98.72,98.72,0,0,0,33.56-74.22c0-54.82-44.7-99.25-99.83-99.25H1268.3v69.47h30a29.78,29.78,0,1,1,0,59.55h-30V641.8h23.19L1376.13,726l61.1-.51.51-60.74Z" transform="translate(-273.02 -243.05)"/><rect class="cls-2" x="0.27" y="305.37" width="284.97" height="74.57"/><rect class="cls-6" y="200.3" width="285.51" height="75.44"/><path class="cls-6" d="M298.1,459.05a1.21,1.21,0,1,0,1.31,1.2A1.25,1.25,0,0,0,298.1,459.05Z" transform="translate(-273.02 -243.05)"/><path class="cls-6" d="M303,472.62a1.27,1.27,0,0,0-1.31,1.21,1.25,1.25,0,0,0,1.07,1.18.65.65,0,0,1,.2,0h0l.24,0a1.31,1.31,0,0,0,.72-.34,1.16,1.16,0,0,0,.38-.84A1.26,1.26,0,0,0,303,472.62Z" transform="translate(-273.02 -243.05)"/><polygon class="cls-6" points="253.34 267.11 253.68 266.74 253.34 267.11 253.34 267.11"/><polygon class="cls-6" points="245.1 223.23 244.92 223.04 245.1 223.23 245.1 223.23"/><polygon class="cls-6" points="242.01 267.11 242.35 266.74 242.01 267.11 242.01 267.11"/><path class="cls-6" d="M525.27,488.22a1.31,1.31,0,1,0,1.55-1.19.69.69,0,0,1-.2,0h0a.91.91,0,0,1-.23,0A1.24,1.24,0,0,0,525.27,488.22Z" transform="translate(-273.02 -243.05)"/><path class="cls-6" d="M531.48,500.58a1.28,1.28,0,0,0-1.31,1.21,1.27,1.27,0,0,0,1.31,1.2,1.26,1.26,0,0,0,1.31-1.2,1.15,1.15,0,0,0-.37-.84A1.44,1.44,0,0,0,531.48,500.58Z" transform="translate(-273.02 -243.05)"/><path class="cls-7" d="M481,499.52a3.44,3.44,0,0,0-2.36.92,3.12,3.12,0,0,0-.84,1.32H447.09a3.12,3.12,0,0,0-.84-1.32,3.49,3.49,0,0,0-4.72,0,3.09,3.09,0,0,0,0,4.53,3.53,3.53,0,0,0,1.86.89v0h1v0a3.49,3.49,0,0,0,1.86-.89,3.12,3.12,0,0,0,.84-1.32h30.67a3.12,3.12,0,0,0,.84,1.32,3.53,3.53,0,0,0,1.86.89v0h1v0a3.45,3.45,0,0,0,1.86-.89,3.09,3.09,0,0,0,0-4.53A3.44,3.44,0,0,0,481,499.52Z" transform="translate(-273.02 -243.05)"/><path class="cls-7" d="M478.6,492.34a3.14,3.14,0,0,0-.84,1.31H447.09a3.14,3.14,0,0,0-.84-1.31,3.46,3.46,0,0,0-4.72,0,3.08,3.08,0,0,0-1,2.26,3.12,3.12,0,0,0,1,2.27,3.44,3.44,0,0,0,1.86.88v0h1v0a3.41,3.41,0,0,0,1.86-.88,3.12,3.12,0,0,0,.84-1.32h30.67a3.12,3.12,0,0,0,.84,1.32,3.44,3.44,0,0,0,1.86.88v0h1v0a3.44,3.44,0,0,0,1.86-.88,3.12,3.12,0,0,0,1-2.27,3.08,3.08,0,0,0-1-2.26,3.46,3.46,0,0,0-4.72,0Z" transform="translate(-273.02 -243.05)"/><path class="cls-7" d="M348.63,467.92A3.46,3.46,0,0,0,351,467a3.21,3.21,0,0,0,.84-1.32H382.5a3,3,0,0,0,.84,1.32,3.42,3.42,0,0,0,2.36.92,3.46,3.46,0,0,0,2.36-.92,3.09,3.09,0,0,0,0-4.53,3.42,3.42,0,0,0-1.86-.89v0h-1v0a3.35,3.35,0,0,0-1.86.89,3,3,0,0,0-.84,1.32H351.83a3.21,3.21,0,0,0-.84-1.32,3.39,3.39,0,0,0-1.86-.89v0h-1v0a3.35,3.35,0,0,0-1.86.89,3.09,3.09,0,0,0,0,4.53A3.44,3.44,0,0,0,348.63,467.92Z" transform="translate(-273.02 -243.05)"/><path class="cls-7" d="M351,475.1a3.21,3.21,0,0,0,.84-1.32H382.5a3,3,0,0,0,.84,1.32,3.42,3.42,0,0,0,2.36.92,3.46,3.46,0,0,0,2.36-.92,3.09,3.09,0,0,0,0-4.53,3.49,3.49,0,0,0-1.86-.89v0h-1v0a3.42,3.42,0,0,0-1.86.89,3,3,0,0,0-.84,1.32H351.83a3.21,3.21,0,0,0-.84-1.32,3.45,3.45,0,0,0-1.86-.89v0h-1v0a3.42,3.42,0,0,0-1.86.89,3.09,3.09,0,0,0,0,4.53,3.49,3.49,0,0,0,4.72,0Z" transform="translate(-273.02 -243.05)"/><path class="cls-7" d="M533.74,499.62a3.31,3.31,0,0,0-1.3-.75l-.19-26.34a.67.67,0,0,0,0-.24,1,1,0,0,0-.3-.68l-5.85-5.52a1,1,0,0,0-.68-.27h-7.34V466a.75.75,0,0,0-.18.13l.18.19h0l-.18-.19-5.85,5.52a.93.93,0,0,0-.3.66h0v8.41h-.87v4.48h-2.33v-4.48h-.87V468.85l7.84-7.39h13.36v-1h0v-.9H514.67v.14a.83.83,0,0,0-.18.13l-8.42,7.94a1,1,0,0,0-.29.55h0v12.36h-.55v4.48h-2.33v-4.48h-.63V468.45a1,1,0,0,0-.3-.68l-.34.36.34-.36L485.12,451.9a1,1,0,0,0-.67-.27H447a3.07,3.07,0,0,0-.88-1.45,3.46,3.46,0,0,0-4.72,0,3.2,3.2,0,0,0-.8,1.21h-8.8a3.07,3.07,0,0,0-6,0h-8.27a3.07,3.07,0,0,0-6,0h-8.27a3.07,3.07,0,0,0-6,0h-51a1,1,0,0,0-.68.27l-5.73,5.41H338.1v4.48h-2.32v-4.48H332.4v4.48h-2.33v-4.48H326.7v4.48h-2.33v-4.48h-2.24l-6.55-6.19a1,1,0,0,0-.68-.26,1,1,0,0,0-.68.26,1,1,0,0,0-.3.69.93.93,0,0,0,.3.68l6.77,6.38v2.92h-2.32v-4.48h-2.53l-6.56-6.19a1,1,0,0,0-1.36,0,.93.93,0,0,0,0,1.37l.34-.37-.34.37h0l7.07,6.66v2.64H313v-4.48h-2.15l-6.56-6.19a1,1,0,0,0-1.36,0,.93.93,0,0,0,0,1.37l.34-.37h0l-.34.37h0l6.7,6.31v3h-1.67v15.33h1.67v4.48h.71v3.79l-1.58,1.48h-3L304,485l-.06-8.2a3.28,3.28,0,0,0,1.31-.75,3,3,0,0,0,0-4.35,3.34,3.34,0,0,0-4.52,0,3,3,0,0,0,0,4.35,3.24,3.24,0,0,0,1.26.73l.06,8.59v0h0s0,0,0,0a.87.87,0,0,0,.07.31,1,1,0,0,0,.11.17,1,1,0,0,0,.09.13l2.26,2.24a1,1,0,0,0,.69.28h4.5v-.27l2.16-2a.94.94,0,0,0,.29-.68h0v-4.19H313v-4.48h2.33v4.48h.55v8l-5.27,5h-6.05l-5.24-4.94-.18-26.22a3.14,3.14,0,0,0,1.26-.74,2.93,2.93,0,0,0,0-4.34,3.27,3.27,0,0,0-2.26-.88,3.31,3.31,0,0,0-2.26.88,3,3,0,0,0-.95,2.17,3.08,3.08,0,0,0,2.26,2.92l.18,26.34a1,1,0,0,0,0,.24.93.93,0,0,0,.3.69l5.85,5.51a1,1,0,0,0,.68.27h7.34v-.13l.18-.14-.18-.19h0l.18.19,5.85-5.51a1,1,0,0,0,.3-.66h0v-8.42h.87v-4.48H321v4.48h.87v11.83L314,500.58H300.66v1.9h14.26v-.14a1,1,0,0,0,.18-.13l-.18-.19h0l.18.19,8.42-7.94a.93.93,0,0,0,.29-.55h0V481.36h.55v-4.48h2.33v4.48h.63v12.23a.91.91,0,0,0,.3.68h0l16.83,15.88a1,1,0,0,0,.68.26h37.37a3.14,3.14,0,0,0,.85,1.32,3.47,3.47,0,0,0,4.71,0,3.14,3.14,0,0,0,.85-1.32h95.17v-.13l.18-.13,5.48-5.17h1.74V500.5h2.32V505h3.38V500.5h2.32V505h3.38V500.5h2.33V505h2.24l6.55,6.18a1,1,0,0,0,1.36,0,.92.92,0,0,0,0-1.36l-.34.36h0l.34-.36-6.78-6.39V500.5h2.33V505h2.53l6.56,6.18a1,1,0,0,0,.68.26,1,1,0,0,0,.68-.26.94.94,0,0,0,0-1.36h0l-7.07-6.67V500.5h2.32V505h2.16l6.56,6.18a1,1,0,0,0,1.36,0,.94.94,0,0,0,0-1.36l-6.7-6.32v-3h1.66V485.16H520v-4.48h-.71V476.9l1.57-1.49h3l1.7,1.68.06,8.21a3.07,3.07,0,0,0-2.26,2.92,3.13,3.13,0,0,0,3.21,3,3.31,3.31,0,0,0,2.26-.88,3,3,0,0,0,0-4.34,3.26,3.26,0,0,0-1.26-.74l-.06-8.62v0a1.3,1.3,0,0,0-.08-.34,1,1,0,0,0-.2-.28h0L525,473.8a1,1,0,0,0-.7-.29h-4.5v.28l-2.15,2a.9.9,0,0,0-.29.68v4.18h-.72v4.48H514.3v-4.48h-.56v-8l5.27-5h6l5.24,4.94.19,26.22a3.18,3.18,0,0,0-1.27.74,3,3,0,0,0,0,4.34,3.31,3.31,0,0,0,2.26.88,3.27,3.27,0,0,0,2.26-.88,3,3,0,0,0,0-4.34ZM303.22,475l-.24,0h0a.65.65,0,0,0-.2,0,1.25,1.25,0,0,1-1.07-1.18,1.31,1.31,0,0,1,2.62,0,1.16,1.16,0,0,1-.38.84A1.31,1.31,0,0,1,303.22,475Zm-5.12-13.55a1.21,1.21,0,1,1,1.31-1.21A1.26,1.26,0,0,1,298.1,461.46Zm117.38,16.32h4.32V462h-4.32v-6.76a3.16,3.16,0,0,0,2-1.94h8.45a3.14,3.14,0,0,0,2,1.94V462h-4.32v15.79h4.32v6.76a3.15,3.15,0,0,0-2,2.09H417.5a3.17,3.17,0,0,0-2-2.09Zm-14.26,0h4.32V462h-4.32v-6.76a3.14,3.14,0,0,0,2-1.94h8.45a3.16,3.16,0,0,0,2,1.94V462h-4.32v15.79h4.32v6.76a3.17,3.17,0,0,0-2,2.09h-8.35a3.15,3.15,0,0,0-2-2.09Zm-59.74,3.58v-4.48h1.66V461.55h-1.66v-3.39l5.17-4.87h50.73a3.15,3.15,0,0,0,2,1.94V462H395v15.79h4.32v6.76a3.13,3.13,0,0,0-2,2.09H369.15l5.37-4.77h8a3.16,3.16,0,0,0,.87,1.39,3.35,3.35,0,0,0,1.86.89v0h1v0a3.36,3.36,0,0,0,1.85-.89,3.07,3.07,0,0,0,0-4.53,3.47,3.47,0,0,0-4.71,0,3.1,3.1,0,0,0-.82,1.25h-8.47a1.05,1.05,0,0,0-.54.24l.3.33-.3-.33-7.23,6.42h-19l-5.94-5.27Zm146.63-.68v4.48h-1.66V500.5h1.66v3.38l-4.92,4.64H388.92a3.14,3.14,0,0,0-.85-1.32,3.42,3.42,0,0,0-1.85-.89v0h-1v0a3.42,3.42,0,0,0-1.86.89,3.14,3.14,0,0,0-.85,1.32h-37l-16.26-15.33V481.36h.79v-4.48h2.33v4.48H333v8.42a1,1,0,0,0,.3.68l12.61,11.88a1,1,0,0,0,.67.27H382.5a3,3,0,0,0,.84,1.32,3.41,3.41,0,0,0,1.86.88v0h1v0a3.49,3.49,0,0,0,.54-.12,3.54,3.54,0,0,0,1.3-.76,3.16,3.16,0,0,0,1-2.27,3.12,3.12,0,0,0-1-2.26,3.42,3.42,0,0,0-2.36-.93,3.39,3.39,0,0,0-2.36.93,3,3,0,0,0-.84,1.31H347l-12-11.33v-8h.8v-4.48h2.32v4.48h.49a.89.89,0,0,0,.22.3l7.46,6.62h0a.94.94,0,0,0,.63.25h9.47l7.25,6.44h0a1,1,0,0,0,.55.22h0l.1,0a.55.55,0,0,0,.18,0h18.06a3.05,3.05,0,0,0,.85,1.34,3.35,3.35,0,0,0,1.86.89v0h1v0a3.36,3.36,0,0,0,1.85-.89,3.09,3.09,0,0,0,1-2.26,3.13,3.13,0,0,0-1-2.27,3.47,3.47,0,0,0-4.71,0,3.21,3.21,0,0,0-.84,1.3H364.59l-5.37-4.77h38.12a3.06,3.06,0,0,0,5.9,0h8.35a3.07,3.07,0,0,0,5.91,0h8.35a3.06,3.06,0,0,0,5.9,0h32.12v-.13a.62.62,0,0,0,.18-.14l13.57-12.78h4.77l5.87,5.2Zm12.2,0h-.8v4.48h-2.32v-4.48h-.64v-8.41h0a1,1,0,0,0-.29-.69l-.24.25.24-.25h0L483.65,459.7a1,1,0,0,0-.68-.27H447a3,3,0,0,0-.84-1.35,3.21,3.21,0,0,0-1.76-.85v0h-1v0a3.47,3.47,0,0,0-2,.91,3.12,3.12,0,0,0-1,2.26,3.16,3.16,0,0,0,1,2.27,3.48,3.48,0,0,0,1.86.88v0h1v0a3.41,3.41,0,0,0,1.86-.88,3.12,3.12,0,0,0,.84-1.32h35.63l12,11.34v8h-.79v4.48h-2.32v-4.48H491a1.06,1.06,0,0,0-.22-.29l-7.42-6.57h0l-.16-.11v-.13H470.4l-7.32-6.5h0a1,1,0,0,0-.65-.25h0l-.19,0H447.09a3.12,3.12,0,0,0-.84-1.32,3.49,3.49,0,0,0-4.72,0,3.09,3.09,0,0,0,0,4.53,3.45,3.45,0,0,0,1.86.89v0h1v0a3.35,3.35,0,0,0,1.86-.89,3.12,3.12,0,0,0,.84-1.32h15l5.45,4.84h-4.69a1,1,0,0,0-.65.25l-7.15,6.35h-8a3.09,3.09,0,0,0-.92-1.58,3.46,3.46,0,0,0-4.72,0,3.12,3.12,0,0,0-1,2.26,3.16,3.16,0,0,0,1,2.27,3.48,3.48,0,0,0,1.86.88v0h1v0a3.41,3.41,0,0,0,1.86-.88,3.12,3.12,0,0,0,.74-1.06h8.67a.92.92,0,0,0,.53-.24l-.3-.34.3.34,7.16-6.35h11.6L463,486.63H431.75a3.15,3.15,0,0,0-2-2.09v-6.76h4.32V462h-4.32v-6.76a3.12,3.12,0,0,0,2-1.94h8.82a3.26,3.26,0,0,0,.87,1.42,3.56,3.56,0,0,0,1.86.89v0h1v0a3.49,3.49,0,0,0,1.86-.89,3.25,3.25,0,0,0,.8-1.19h37.14l16.26,15.33Zm26.29,6.38h0a.69.69,0,0,0,.2,0,1.33,1.33,0,1,1-.45,0A.91.91,0,0,0,526.6,487.06ZM531.48,503a1.27,1.27,0,0,1-1.31-1.2,1.28,1.28,0,0,1,1.31-1.21,1.44,1.44,0,0,1,.94.37,1.15,1.15,0,0,1,.37.84A1.26,1.26,0,0,1,531.48,503Z" transform="translate(-273.02 -243.05)"/><path class="cls-8" d="M333.54,584.89l7,6.94a.51.51,0,0,0,.36.15h194.3v-5.5a2.43,2.43,0,1,0-3-2.76h-7.36v-4.05h-13v8.9h13v-4.05h7.36a2.42,2.42,0,0,0,2,2V591H341.08l-6.62-6.58h49a2.45,2.45,0,0,0,4.84.12h7.35v4.05h13V584.4h9.5v4.17h13v-4.05h7.36a2.44,2.44,0,0,0,4.83-.12h33.76a2.44,2.44,0,0,0,4.83.12h7.36v4.05h13v-8.9h-13v4.05h-7.36a2.44,2.44,0,0,0-4.74-.32H443.26a2.45,2.45,0,0,0-4.67,0h-7.43v-3.73h-13v3.73h-9.5v-3.73h-13v3.73h-7.43a2.44,2.44,0,0,0-4.66,0H333.82v-1h-5v-3.48h5v-2.49h-5V573h5v-.4H534.18v0h1v-6a2.43,2.43,0,1,0-3-2.76h-7.36v-4.05h-13v8.91h13v-4.05h7.36a2.45,2.45,0,0,0,2,2v4.93H352.61l7-6.63h23.87a2.45,2.45,0,0,0,4.68,0h7.42v3.76h13v-3.76h9.5v3.76h13v-3.76h7.42a2.45,2.45,0,0,0,4.68,0h33.93a2.45,2.45,0,0,0,4.75-.29h7.36v4.05h13v-8.91h-13v4.05h-7.36a2.44,2.44,0,0,0-4.83.11H443.35a2.44,2.44,0,0,0-4.83-.11h-7.36v-4.05h-13v4.16h-9.5v-4.16h-13v4.05h-7.35a2.44,2.44,0,0,0-4.83.11h-24a.51.51,0,0,0-.35.13l-8,7.49H333.82v-1.08h-5v-1.74h-16v5.61h-19.5v1h19.5v7h-19.5v1h19.5v7h-19.5v1h19.5v7h-19.5v1h19.5v5.33h16v-1.74h5v-.4l9.08,9a.54.54,0,0,0,.36.14v.07H535.18v-5.27a2.43,2.43,0,1,0-3-2.76h-7.36v-4h-13v8.9h13v-4.05h7.36a2.45,2.45,0,0,0,2,2v4.36H343.66l-.05,0L333.82,601v-.68h-5v-3.48h5v-.52l8.59,8.09a.52.52,0,0,0,.35.14h40.72a2.44,2.44,0,0,0,4.76,0h7.38v3.93h13v-3.93h9.5v3.93h13v-3.93h7.38a2.45,2.45,0,0,0,4.77,0h33.84a2.44,2.44,0,0,0,4.79-.12h7.36v4.05h13v-8.9h-13v4h-7.36a2.44,2.44,0,0,0-4.8-.06H443.32a2.44,2.44,0,0,0-4.79,0h-7.37v-4h-13v4h-9.5v-4h-13v4h-7.37a2.44,2.44,0,0,0-4.79,0H343l-9.14-8.61v-.59h-5v-3.48h5v-2.49h-5v-3.48Z" transform="translate(-273.02 -243.05)"/><polygon class="cls-5" points="0.88 409.71 0.88 427.6 11.99 427.6 11.99 426.65 11.99 426.18 17.21 426.18 17.21 423.82 19.6 423.82 19.6 418.58 22.45 418.58 22.93 418.58 22.93 423.82 25.3 423.82 25.3 418.58 28.15 418.58 28.62 418.58 28.62 423.82 30.99 423.82 30.99 418.58 33.84 418.58 34.32 418.58 34.32 423.82 36.69 423.82 36.69 418.58 39.54 418.58 40.01 418.58 40.01 423.82 42.38 423.82 42.38 418.58 45.23 418.58 45.71 418.58 45.71 423.82 48.08 423.82 48.08 418.58 50.93 418.58 51.4 418.58 51.4 423.82 53.77 423.82 53.77 418.58 56.62 418.58 57.1 418.58 57.1 423.82 59.92 423.82 59.92 426.18 65.14 426.18 65.14 427.13 75.87 427.13 75.87 409.71 0.88 409.71"/><polygon class="cls-5" points="65.14 463.46 59.92 463.46 59.92 466.29 57.1 466.29 57.1 471.53 54.25 471.53 53.77 471.53 53.77 466.29 51.4 466.29 51.4 471.53 48.55 471.53 48.08 471.53 48.08 466.29 45.71 466.29 45.71 471.53 42.86 471.53 42.38 471.53 42.38 466.29 40.01 466.29 40.01 471.53 37.16 471.53 36.69 471.53 36.69 466.29 34.32 466.29 34.32 471.53 31.47 471.53 30.99 471.53 30.99 466.29 28.62 466.29 28.62 471.53 25.77 471.53 25.3 471.53 25.3 466.29 22.93 466.29 22.93 471.53 20.08 471.53 19.6 471.53 19.6 466.29 17.21 466.29 17.21 463.46 11.99 463.46 11.99 461.85 0.88 461.85 0.88 484.16 75.87 484.16 75.87 462.01 65.14 462.01 65.14 463.46"/><polygon class="cls-5" points="11.99 432.32 11.99 431.85 17.21 431.85 17.21 429.49 11.99 429.49 11.99 428.54 0.88 428.54 0.88 433.09 11.99 433.09 11.99 432.32"/><polygon class="cls-5" points="11.99 449.31 11.99 448.83 17.21 448.83 17.21 446.47 11.99 446.47 11.99 445.95 0.88 445.95 0.88 450.36 11.99 450.36 11.99 449.31"/><polygon class="cls-5" points="65.14 429.49 59.92 429.49 59.92 431.85 65.14 431.85 65.14 432.66 75.87 432.66 75.87 428.07 65.14 428.07 65.14 429.49"/><polygon class="cls-5" points="65.14 440.81 59.92 440.81 59.92 443.17 65.14 443.17 65.14 444.59 75.87 444.59 75.87 439.24 65.14 439.24 65.14 440.81"/><polygon class="cls-5" points="11.99 460.63 11.99 460.16 17.21 460.16 17.21 457.8 11.99 457.8 11.99 456.97 0.88 456.97 0.88 460.91 11.99 460.91 11.99 460.63"/><polygon class="cls-5" points="65.14 446.47 59.92 446.47 59.92 448.83 65.14 448.83 65.14 449.94 75.87 449.94 75.87 445.53 65.14 445.53 65.14 446.47"/><polygon class="cls-5" points="65.14 457.8 59.92 457.8 59.92 460.16 65.14 460.16 65.14 461.06 75.87 461.06 75.87 456.94 65.14 456.94 65.14 457.8"/><polygon class="cls-5" points="65.14 452.14 59.92 452.14 59.92 454.5 65.14 454.5 65.14 455.99 75.87 455.99 75.87 450.88 65.14 450.88 65.14 452.14"/><polygon class="cls-5" points="11.99 454.97 11.99 454.5 17.21 454.5 17.21 452.14 11.99 452.14 11.99 451.3 0.88 451.3 0.88 456.03 11.99 456.03 11.99 454.97"/><polygon class="cls-5" points="11.99 443.64 11.99 443.17 17.21 443.17 17.21 440.81 11.99 440.81 11.99 439.66 0.88 439.66 0.88 445.01 11.99 445.01 11.99 443.64"/><polygon class="cls-5" points="11.99 437.98 11.99 437.51 17.21 437.51 17.21 435.15 11.99 435.15 11.99 434.03 0.88 434.03 0.88 438.72 11.99 438.72 11.99 437.98"/><polygon class="cls-5" points="65.14 435.15 59.92 435.15 59.92 437.51 65.14 437.51 65.14 438.3 75.87 438.3 75.87 433.61 65.14 433.61 65.14 435.15"/><polygon class="cls-9" points="65.14 429.49 65.14 428.07 75.87 428.07 75.87 427.13 65.14 427.13 65.14 426.18 59.92 426.18 59.92 423.82 57.1 423.82 57.1 418.58 56.62 418.58 53.77 418.58 53.77 423.82 51.4 423.82 51.4 418.58 50.93 418.58 48.08 418.58 48.08 423.82 45.71 423.82 45.71 418.58 45.23 418.58 42.38 418.58 42.38 423.82 40.01 423.82 40.01 418.58 39.54 418.58 36.69 418.58 36.69 423.82 34.32 423.82 34.32 418.58 33.84 418.58 30.99 418.58 30.99 423.82 28.62 423.82 28.62 418.58 28.15 418.58 25.3 418.58 25.3 423.82 22.93 423.82 22.93 418.58 22.45 418.58 19.6 418.58 19.6 423.82 17.21 423.82 17.21 426.18 11.99 426.18 11.99 426.65 11.99 427.6 0.88 427.6 0.88 428.54 11.99 428.54 11.99 429.49 17.21 429.49 17.21 431.85 11.99 431.85 11.99 432.32 11.99 433.09 0.88 433.09 0.88 434.03 11.99 434.03 11.99 435.15 17.21 435.15 17.21 437.51 11.99 437.51 11.99 437.98 11.99 438.72 0.88 438.72 0.88 439.66 11.99 439.66 11.99 440.81 17.21 440.81 17.21 443.17 11.99 443.17 11.99 443.64 11.99 445.01 0.88 445.01 0.88 445.95 11.99 445.95 11.99 446.47 17.21 446.47 17.21 448.83 11.99 448.83 11.99 449.31 11.99 450.36 0.88 450.36 0.88 451.3 11.99 451.3 11.99 452.14 17.21 452.14 17.21 454.5 11.99 454.5 11.99 454.97 11.99 456.03 0.88 456.03 0.88 456.97 11.99 456.97 11.99 457.8 17.21 457.8 17.21 460.16 11.99 460.16 11.99 460.63 11.99 460.91 0.88 460.91 0.88 461.85 11.99 461.85 11.99 463.46 17.21 463.46 17.21 466.29 19.6 466.29 19.6 471.53 20.08 471.53 22.93 471.53 22.93 466.29 25.3 466.29 25.3 471.53 25.77 471.53 28.62 471.53 28.62 466.29 30.99 466.29 30.99 471.53 31.47 471.53 34.32 471.53 34.32 466.29 36.69 466.29 36.69 471.53 37.16 471.53 40.01 471.53 40.01 466.29 42.38 466.29 42.38 471.53 42.86 471.53 45.71 471.53 45.71 466.29 48.08 466.29 48.08 471.53 48.55 471.53 51.4 471.53 51.4 466.29 53.77 466.29 53.77 471.53 54.25 471.53 57.1 471.53 57.1 466.29 59.92 466.29 59.92 463.46 65.14 463.46 65.14 462.01 75.87 462.01 75.87 461.06 65.14 461.06 65.14 460.16 59.92 460.16 59.92 457.8 65.14 457.8 65.14 456.94 75.87 456.94 75.87 455.99 65.14 455.99 65.14 454.5 59.92 454.5 59.92 452.14 65.14 452.14 65.14 450.88 75.87 450.88 75.87 449.94 65.14 449.94 65.14 448.83 59.92 448.83 59.92 446.47 65.14 446.47 65.14 445.53 75.87 445.53 75.87 444.59 65.14 444.59 65.14 443.17 59.92 443.17 59.92 440.81 65.14 440.81 65.14 439.24 75.87 439.24 75.87 438.3 65.14 438.3 65.14 437.51 59.92 437.51 59.92 435.15 65.14 435.15 65.14 433.61 75.87 433.61 75.87 432.66 65.14 432.66 65.14 431.85 59.92 431.85 59.92 429.49 65.14 429.49"/><path class="cls-1" d="M729.69,481.68,612.46,683.55l-.24.41-1.15,2h0l-.7,1.22L609,689.49l-1.62,2.8c-10.52,18.14-17.9,30.88-20.07,34.63h81L770.19,551.43l-40.5-69.75" transform="translate(-273.02 -243.05)"/><path class="cls-1" d="M811,480.15l.27.48.13-.22-.4-.26m-20.76-36-.42.25h.56l-.14-.25" transform="translate(-273.02 -243.05)"/><polygon class="cls-10" points="517.4 203.33 476.96 203.33 456.67 238.65 497.18 308.41 537.68 238.65 517.4 203.33"/><polygon class="cls-6" points="659.99 449.25 659.97 449.22 537.68 238.63 497.18 308.38 599.07 483.87 680.27 484.25 659.99 449.25"/><line class="cls-11" x1="496.6" y1="309.38" x2="538.42" y2="237.35"/><line class="cls-11" x1="454.91" y1="237.58" x2="496.6" y2="309.38"/><line class="cls-11" x1="903.96" y1="155.36" x2="903.96" y2="482.23"/></g></svg>